# xmcd
#
# Track frame offsets: 
#        187
#        17025
#        35437
#        53400
#        70387
#        92662
#        108225
#        122962
#        138150
#        154912
#        173287
#        195975
#
# Disc length: 2868 seconds
#
# Revision: 0
# Processed by: cddbd v1.4PL0 Copyright (c) Steve Scherf et al.
# Submitted via: ExactAudioCopy v0.90b4
#
DISCID=900b320c
DTITLE="Earring" George Mayweather - Whup It! Whup It!
DYEAR=1992
DGENRE=Blues
TTITLE0=Tomorrow Night
TTITLE1=In the Evening
TTITLE2=Forty-Four
TTITLE3=What'd I Say
TTITLE4=Gypsy Woman
TTITLE5=Feel So Bad
TTITLE6=It's Your Last Time
TTITLE7=Bad Actin' Woman
TTITLE8=Shake for Me
TTITLE9=Cheatin' on Me
TTITLE10=You Left Me with a Broken Heart
TTITLE11=Shout Sister Bessie
EXTD=Produced by Ron Levy\nExecutive Producer/Engineer Richard Rosenbl
EXTD=att\n\nVocals, Harmonica - "Earring" George Mayweather\nGuitar - 
EXTD=Chris "Stovall" Brown\nSaxophone - "Sax" Gordon\nDrums - Tuffy Ki
EXTD=mble\nBass - Buster Wylie\nOrgan, Piano - Ron Levy\n\nTone-Cool R
EXTD=ecords\n129 Parker Street\nNewton, MA 02159 USA\n
EXTT0=
EXTT1=
EXTT2=
EXTT3=
EXTT4=
EXTT5=
EXTT6=
EXTT7=
EXTT8=
EXTT9=
EXTT10=
EXTT11=
PLAYORDER=
